<svg id="Layer_1" data-name="Layer 1" xmlns="http://www.w3.org/2000/svg" viewBox="0 0 122.88 122.88">
    <defs>
        <style>.cls-1{fill:#fbd433;}.cls-1,.cls-2{fill-rule:evenodd;}.cls-2{fill:#141518;}</style>
    </defs>
    <title>smiley</title>
    <path
        d="M28.8,70.82a39.65,39.65,0,0,0,8.83,8.41,42.72,42.72,0,0,0,25,7.53,40.44,40.44,0,0,0,24.12-8.12,35.75,35.75,0,0,0,7.49-7.87.22.22,0,0,1,.31,0L97,73.14a.21.21,0,0,1,0,.29A45.87,45.87,0,0,1,82.89,88.58,37.67,37.67,0,0,1,62.83,95a39,39,0,0,1-20.68-5.55A50.52,50.52,0,0,1,25.9,73.57a.23.23,0,0,1,0-.28l2.52-2.5a.22.22,0,0,1,.32,0l0,0Z" />

   </svg>